<svg width="77" height="77" viewBox="0 0 77 77" fill="none" xmlns="http://www.w3.org/2000/svg">
<rect width="77" height="77" rx="38.5" fill="white"/>
<path d="M24.3914 18L22.2291 20.1677L25.4464 23.3962L27.6056 21.2284L24.3914 18ZM52.6101 18L49.3928 21.2284L51.5536 23.3962L54.7694 20.1693L52.6101 18ZM38.5 18.9621C37.9932 18.9682 37.4803 18.9975 36.9643 19.0607C36.9489 19.0607 36.9336 19.0576 36.9182 19.0607C30.6894 19.7776 25.7321 24.83 24.8705 31.0556C24.1825 36.0663 26.2404 40.6099 29.6696 43.5362C31.0724 44.738 32.0212 46.3873 32.3571 48.2077V57.4582H35.8586C36.393 58.3787 37.3682 59 38.5 59C39.6318 59 40.607 58.3787 41.1414 57.4582H44.6429V51.2912H44.7872V49.4596C44.7872 47.1994 45.9574 44.9207 47.8586 43.1492C50.4018 40.5929 52.3214 36.9621 52.3214 32.7916C52.3214 25.1753 46.0772 18.8911 38.5 18.9621ZM38.5 22.0456C44.4355 21.9623 49.25 26.8404 49.25 32.7916C49.25 36.0201 47.7604 38.8631 45.6979 40.9321L45.747 40.9815C43.6974 42.8789 42.3721 45.4353 41.9999 48.2092H35.2827C34.9448 45.5667 33.8161 43.0089 31.683 41.1742C28.9694 38.8615 27.3523 35.3772 27.8928 31.4426C28.5639 26.5861 32.4892 22.6808 37.2991 22.1458C37.6962 22.0902 38.0961 22.0573 38.4969 22.0471L38.5 22.0456ZM17 32.7916V35.8752H21.6071V32.7916H17ZM55.3929 32.7916V35.8752H60V32.7916H55.3929ZM25.4464 45.2706L22.2306 48.4975L24.3914 50.6668L27.6041 47.4383L25.4464 45.2706ZM51.5536 45.2706L49.3944 47.4383L52.6086 50.6668L54.7694 48.4975L51.5536 45.2706ZM35.4286 51.2927H41.5714V54.3763H35.4286V51.2927Z" fill="url(#paint0_linear_353_119)"/>
<defs>
<linearGradient id="paint0_linear_353_119" x1="17" y1="38.5" x2="60" y2="38.5" gradientUnits="userSpaceOnUse">
<stop stop-color="#F61A12"/>
<stop offset="1" stop-color="#FF5751"/>
</linearGradient>
</defs>
</svg>
