<svg width="28" height="30" viewBox="0 0 28 30" fill="none" xmlns="http://www.w3.org/2000/svg">
<path d="M12.061 13.9341L0.429688 27.5501C0.852751 28.9898 2.19694 30 3.69935 30C4.35328 30 4.92576 29.8365 5.41621 29.5096L19.723 21.3378L12.061 13.9341Z" fill="#EA4335"/>
<path d="M25.7735 12.0181L19.6415 8.50229L13.1016 14.9607L19.7235 21.3378L25.855 17.904C26.9179 17.3315 27.6539 16.1872 27.6539 14.9607C27.5719 13.7343 26.8365 12.5899 25.7735 12.0181Z" fill="#FBBC04"/>
<path d="M12.0329 16.0231L19.6416 8.50229L5.49825 0.490449C5.0078 0.163483 4.35328 0 3.69935 0C2.14655 0 0.756653 1.06293 0.429688 2.45283L12.0329 16.0231Z" fill="#34A853"/>
<path d="M0.429105 2.45284C0.347656 2.69777 0.347656 3.02532 0.347656 3.3517V26.6518C0.347656 26.9782 0.347656 27.2237 0.429691 27.5507L13.1023 14.9607L0.429105 2.45284Z" fill="#4285F4"/>
</svg>
