<svg width="18" height="18" viewBox="0 0 18 18" fill="none" xmlns="http://www.w3.org/2000/svg">
<path d="M9 0L11.0357 5.16153C11.2236 5.63799 11.3175 5.87622 11.4614 6.0771C11.5889 6.25516 11.7448 6.41106 11.9229 6.53859C12.1238 6.68245 12.362 6.77641 12.8385 6.96432L18 9L12.8385 11.0357C12.362 11.2236 12.1238 11.3175 11.9229 11.4614C11.7448 11.5889 11.5889 11.7448 11.4614 11.9229C11.3175 12.1238 11.2236 12.362 11.0357 12.8385L9 18L6.96432 12.8385C6.77641 12.362 6.68245 12.1238 6.53859 11.9229C6.41106 11.7448 6.25516 11.5889 6.0771 11.4614C5.87622 11.3175 5.63799 11.2236 5.16153 11.0357L0 9L5.16153 6.96432C5.63799 6.77641 5.87622 6.68245 6.0771 6.53859C6.25516 6.41106 6.41106 6.25516 6.53859 6.0771C6.68245 5.87622 6.77641 5.63799 6.96432 5.16153L9 0Z" fill="#F61A12"/>
</svg>
